<?xml version="1.0" encoding="UTF-8" standalone="no"?>
<!-- Created with Inkscape (http://www.inkscape.org/) -->

<svg
   xmlns:dc="http://purl.org/dc/elements/1.1/"
   xmlns:cc="http://creativecommons.org/ns#"
   xmlns:rdf="http://www.w3.org/1999/02/22-rdf-syntax-ns#"
   xmlns:svg="http://www.w3.org/2000/svg"
   xmlns="http://www.w3.org/2000/svg"
   xmlns:xlink="http://www.w3.org/1999/xlink"
   xmlns:sodipodi="http://sodipodi.sourceforge.net/DTD/sodipodi-0.dtd"
   xmlns:inkscape="http://www.inkscape.org/namespaces/inkscape"
   width="210mm"
   height="297mm"
   viewBox="0 0 744.09448819 1052.3622047"
   id="svg2"
   version="1.1"
   inkscape:version="0.91 r13725"
   inkscape:export-filename="/home/mos/Pictures/grillcon_logo_220x279.png"
   inkscape:export-xdpi="90"
   inkscape:export-ydpi="90"
   sodipodi:docname="grillcon_logo.svg">
  <defs
     id="defs4">
    <linearGradient
       id="linearGradient3109">
      <stop
         offset="0"
         style="stop-color:#ffff00"
         id="stop3111" />
      <stop
         offset="1"
         style="stop-color:#ffff00;stop-opacity:0"
         id="stop3113" />
    </linearGradient>
    <linearGradient
       inkscape:collect="always"
       x1="315.71"
       y1="696.65"
       x2="241.43"
       gradientUnits="userSpaceOnUse"
       xlink:href="#linearGradient3109"
       y2="236.65"
       id="linearGradient3115" />
    <linearGradient
       inkscape:collect="always"
       xlink:href="#linearGradient3109"
       id="linearGradient3444"
       gradientUnits="userSpaceOnUse"
       x1="315.71"
       y1="696.65"
       x2="241.43"
       y2="236.65" />
    <linearGradient
       inkscape:collect="always"
       xlink:href="#linearGradient3109"
       id="linearGradient3446"
       gradientUnits="userSpaceOnUse"
       x1="315.71"
       y1="696.65"
       x2="241.43"
       y2="236.65" />
    <linearGradient
       inkscape:collect="always"
       xlink:href="#linearGradient3109"
       id="linearGradient3448"
       gradientUnits="userSpaceOnUse"
       x1="315.71"
       y1="696.65"
       x2="241.43"
       y2="236.65" />
    <linearGradient
       inkscape:collect="always"
       xlink:href="#linearGradient3109"
       id="linearGradient3450"
       gradientUnits="userSpaceOnUse"
       x1="315.71"
       y1="696.65"
       x2="241.43"
       y2="236.65" />
    <linearGradient
       inkscape:collect="always"
       xlink:href="#linearGradient3109"
       id="linearGradient3452"
       gradientUnits="userSpaceOnUse"
       x1="315.71"
       y1="696.65"
       x2="241.43"
       y2="236.65" />
    <linearGradient
       inkscape:collect="always"
       xlink:href="#linearGradient3109"
       id="linearGradient3454"
       gradientUnits="userSpaceOnUse"
       x1="315.71"
       y1="696.65"
       x2="241.43"
       y2="236.65" />
    <linearGradient
       inkscape:collect="always"
       xlink:href="#linearGradient3109"
       id="linearGradient3547"
       gradientUnits="userSpaceOnUse"
       x1="315.71"
       y1="696.65"
       x2="241.43"
       y2="236.65" />
    <linearGradient
       inkscape:collect="always"
       xlink:href="#linearGradient3109"
       id="linearGradient3549"
       gradientUnits="userSpaceOnUse"
       x1="315.71"
       y1="696.65"
       x2="241.43"
       y2="236.65" />
    <linearGradient
       inkscape:collect="always"
       xlink:href="#linearGradient3109"
       id="linearGradient3551"
       gradientUnits="userSpaceOnUse"
       x1="315.71"
       y1="696.65"
       x2="241.43"
       y2="236.65" />
    <linearGradient
       inkscape:collect="always"
       xlink:href="#linearGradient3109"
       id="linearGradient3553"
       gradientUnits="userSpaceOnUse"
       x1="315.71"
       y1="696.65"
       x2="241.43"
       y2="236.65" />
    <linearGradient
       inkscape:collect="always"
       xlink:href="#linearGradient3109"
       id="linearGradient3555"
       gradientUnits="userSpaceOnUse"
       x1="315.71"
       y1="696.65"
       x2="241.43"
       y2="236.65" />
    <linearGradient
       inkscape:collect="always"
       xlink:href="#linearGradient3109"
       id="linearGradient3557"
       gradientUnits="userSpaceOnUse"
       x1="315.71"
       y1="696.65"
       x2="241.43"
       y2="236.65" />
    <linearGradient
       inkscape:collect="always"
       xlink:href="#linearGradient3109"
       id="linearGradient3559"
       gradientUnits="userSpaceOnUse"
       x1="315.71"
       y1="696.65"
       x2="241.43"
       y2="236.65" />
    <linearGradient
       inkscape:collect="always"
       xlink:href="#linearGradient3109"
       id="linearGradient3595"
       gradientUnits="userSpaceOnUse"
       x1="315.71"
       y1="696.65"
       x2="241.43"
       y2="236.65" />
    <linearGradient
       inkscape:collect="always"
       xlink:href="#linearGradient3109"
       id="linearGradient3597"
       gradientUnits="userSpaceOnUse"
       x1="315.71"
       y1="696.65"
       x2="241.43"
       y2="236.65" />
    <linearGradient
       inkscape:collect="always"
       xlink:href="#linearGradient3109"
       id="linearGradient3599"
       gradientUnits="userSpaceOnUse"
       x1="315.71"
       y1="696.65"
       x2="241.43"
       y2="236.65" />
    <linearGradient
       inkscape:collect="always"
       xlink:href="#linearGradient3109"
       id="linearGradient3601"
       gradientUnits="userSpaceOnUse"
       x1="315.71"
       y1="696.65"
       x2="241.43"
       y2="236.65" />
    <linearGradient
       inkscape:collect="always"
       xlink:href="#linearGradient3109"
       id="linearGradient3603"
       gradientUnits="userSpaceOnUse"
       x1="315.71"
       y1="696.65"
       x2="241.43"
       y2="236.65" />
    <linearGradient
       inkscape:collect="always"
       xlink:href="#linearGradient3109"
       id="linearGradient3605"
       gradientUnits="userSpaceOnUse"
       x1="315.71"
       y1="696.65"
       x2="241.43"
       y2="236.65" />
    <linearGradient
       inkscape:collect="always"
       xlink:href="#linearGradient3109"
       id="linearGradient3607"
       gradientUnits="userSpaceOnUse"
       x1="315.71"
       y1="696.65"
       x2="241.43"
       y2="236.65" />
    <linearGradient
       inkscape:collect="always"
       xlink:href="#linearGradient3109"
       id="linearGradient4445"
       gradientUnits="userSpaceOnUse"
       x1="315.71"
       y1="696.65"
       x2="241.43"
       y2="236.65" />
    <linearGradient
       inkscape:collect="always"
       xlink:href="#linearGradient3109"
       id="linearGradient4447"
       gradientUnits="userSpaceOnUse"
       x1="315.71"
       y1="696.65"
       x2="241.43"
       y2="236.65" />
    <linearGradient
       inkscape:collect="always"
       xlink:href="#linearGradient3109"
       id="linearGradient4449"
       gradientUnits="userSpaceOnUse"
       x1="315.71"
       y1="696.65"
       x2="241.43"
       y2="236.65" />
    <linearGradient
       inkscape:collect="always"
       xlink:href="#linearGradient3109"
       id="linearGradient4451"
       gradientUnits="userSpaceOnUse"
       x1="315.71"
       y1="696.65"
       x2="241.43"
       y2="236.65" />
    <linearGradient
       inkscape:collect="always"
       xlink:href="#linearGradient3109"
       id="linearGradient4453"
       gradientUnits="userSpaceOnUse"
       x1="315.71"
       y1="696.65"
       x2="241.43"
       y2="236.65" />
    <linearGradient
       inkscape:collect="always"
       xlink:href="#linearGradient3109"
       id="linearGradient4455"
       gradientUnits="userSpaceOnUse"
       x1="315.71"
       y1="696.65"
       x2="241.43"
       y2="236.65" />
    <linearGradient
       inkscape:collect="always"
       xlink:href="#linearGradient3109"
       id="linearGradient4457"
       gradientUnits="userSpaceOnUse"
       x1="315.71"
       y1="696.65"
       x2="241.43"
       y2="236.65" />
  </defs>
  <sodipodi:namedview
     id="base"
     pagecolor="#ffffff"
     bordercolor="#666666"
     borderopacity="1.0"
     inkscape:pageopacity="0.0"
     inkscape:pageshadow="2"
     inkscape:zoom="0.35"
     inkscape:cx="-75"
     inkscape:cy="62.857143"
     inkscape:document-units="px"
     inkscape:current-layer="layer1"
     showgrid="false"
     inkscape:window-width="1474"
     inkscape:window-height="914"
     inkscape:window-x="136"
     inkscape:window-y="79"
     inkscape:window-maximized="0" />
  <metadata
     id="metadata7">
    <rdf:RDF>
      <cc:Work
         rdf:about="">
        <dc:format>image/svg+xml</dc:format>
        <dc:type
           rdf:resource="http://purl.org/dc/dcmitype/StillImage" />
        <dc:title></dc:title>
      </cc:Work>
    </rdf:RDF>
  </metadata>
  <g
     inkscape:label="Layer 1"
     inkscape:groupmode="layer"
     id="layer1">
    <g
       transform="matrix(1.0499996,0,0,1.1855195,162.85596,-493.17582)"
       inkscape:label="Calque 1"
       id="layer1-1">
      <g
         id="g3015">
        <g
           transform="matrix(0.93252,0,0,0.93252,-81.093,374.66)"
           id="g3087">
          <g
             style="fill:#ff0000"
             id="g3039">
            <path
               inkscape:connector-curvature="0"
               style="fill:#ff0000"
               sodipodi:nodetypes="ssssss"
               d="M 128.57,378.08 C 117.06,508.78 180.33,731.93 311.43,726.65 423.14,722.15 508.87,508.3 442.86,418.08 359.43,304.06 275.57,239.18 277.14,153.79 278.15,99.379 221.1,219.56 234.29,272.36 307.95,567.42 131.85,340.88 128.57,378.08 Z"
               id="path3029" />
            <path
               d="M 120,309.51 C 15.63,487.35 180.33,731.93 311.43,726.65 423.14,722.15 508.87,508.3 442.86,418.08 359.43,304.06 172.71,300.61 174.29,215.22 c 1.0053,-54.412 -42.081,12.651 -30,65.714 66.52,292.2 -5.39,-3.63 -24.29,28.58 z"
               inkscape:connector-curvature="0"
               style="fill:#ff0000"
               sodipodi:nodetypes="ssssss"
               id="path3031" />
          </g>
          <g
             transform="matrix(-1,0,0,1,602.87,-24.286)"
             style="fill:#ff0000"
             id="g3043">
            <path
               d="M 128.57,378.08 C 117.06,508.78 180.33,731.93 311.43,726.65 423.14,722.15 508.87,508.3 442.86,418.08 359.43,304.06 275.57,239.18 277.14,153.79 278.15,99.379 221.1,219.56 234.29,272.36 307.95,567.42 131.85,340.88 128.57,378.08 Z"
               inkscape:connector-curvature="0"
               style="fill:#ff0000"
               sodipodi:nodetypes="ssssss"
               id="path3045" />
            <path
               inkscape:connector-curvature="0"
               style="fill:#ff0000"
               sodipodi:nodetypes="ssssss"
               d="M 120,309.51 C 15.63,487.35 180.33,731.93 311.43,726.65 423.14,722.15 508.87,508.3 442.86,418.08 359.43,304.06 172.71,300.61 174.29,215.22 c 1.0053,-54.412 -42.081,12.651 -30,65.714 66.52,292.2 -5.39,-3.63 -24.29,28.58 z"
               id="path3047" />
          </g>
        </g>
        <g
           transform="matrix(0.93252,0,0,0.93252,-81.093,374.66)"
           style="fill:url(#linearGradient3115)"
           id="g3095">
          <g
             style="fill:url(#linearGradient3448)"
             id="g3097">
            <path
               d="M 128.57,378.08 C 117.06,508.78 180.33,731.93 311.43,726.65 423.14,722.15 508.87,508.3 442.86,418.08 359.43,304.06 275.57,239.18 277.14,153.79 278.15,99.379 221.1,219.56 234.29,272.36 307.95,567.42 131.85,340.88 128.57,378.08 Z"
               inkscape:connector-curvature="0"
               style="fill:url(#linearGradient3444)"
               sodipodi:nodetypes="ssssss"
               id="path3099" />
            <path
               inkscape:connector-curvature="0"
               style="fill:url(#linearGradient3446)"
               sodipodi:nodetypes="ssssss"
               d="M 120,309.51 C 15.63,487.35 180.33,731.93 311.43,726.65 423.14,722.15 508.87,508.3 442.86,418.08 359.43,304.06 172.71,300.61 174.29,215.22 c 1.0053,-54.412 -42.081,12.651 -30,65.714 66.52,292.2 -5.39,-3.63 -24.29,28.58 z"
               id="path3101" />
          </g>
          <g
             transform="matrix(-1,0,0,1,602.87,-24.286)"
             style="fill:url(#linearGradient3454)"
             id="g3103">
            <path
               inkscape:connector-curvature="0"
               style="fill:url(#linearGradient3450)"
               sodipodi:nodetypes="ssssss"
               d="M 128.57,378.08 C 117.06,508.78 180.33,731.93 311.43,726.65 423.14,722.15 508.87,508.3 442.86,418.08 359.43,304.06 275.57,239.18 277.14,153.79 278.15,99.379 221.1,219.56 234.29,272.36 307.95,567.42 131.85,340.88 128.57,378.08 Z"
               id="path3105" />
            <path
               d="M 120,309.51 C 15.63,487.35 180.33,731.93 311.43,726.65 423.14,722.15 508.87,508.3 442.86,418.08 359.43,304.06 172.71,300.61 174.29,215.22 c 1.0053,-54.412 -42.081,12.651 -30,65.714 66.52,292.2 -5.39,-3.63 -24.29,28.58 z"
               inkscape:connector-curvature="0"
               style="fill:url(#linearGradient3452)"
               sodipodi:nodetypes="ssssss"
               id="path3107" />
          </g>
        </g>
      </g>
    </g>
    <path
       d="m 105.94137,645.99182 c 0,-29.01838 17.28757,-23.46166 17.28757,-45.07106 0,-25.31392 -13.58309,-19.75721 -13.58309,-41.36663 0,-11.11341 18.52234,-20.992 40.74919,-20.992 6.79154,38.27955 14.8179,49.39297 38.89694,61.12379 l 49.39297,67.91532 C 183.11786,645.99182 167.68258,645.99182 105.94137,645.99182 Z m 54.33225,117.92569 c 0,-15.43529 11.1134,-25.93128 23.46167,-25.93128 26.54872,0 62.35861,-8.64378 95.08147,-27.16613 l 8.64376,30.87059 17.28757,12.96567 c -59.88899,24.07907 -56.18453,64.21083 -84.58548,64.21083 -24.07907,0 -6.79156,-43.21884 -59.88899,-54.94968 z M 204.7273,590.42473 225.10189,560.78896 210.9014,445.3329 c 0,-55.56705 92.61184,-108.04709 160.52718,-108.04709 67.91535,0 160.52713,52.48004 160.52713,108.04709 l -14.20047,115.45606 20.37459,29.63577 -53.71486,74.08945 -33.95764,6.17412 -4.93931,26.54872 -46.30589,25.93133 -55.56709,0 -46.3059,-25.93133 -4.93932,-26.54872 -33.95768,-6.17412 z m 49.39295,-19.13976 c 0,34.57507 8.02637,53.71485 22.84422,53.71485 34.57513,0 73.47209,-16.67012 73.47209,-50.01037 0,-19.13977 -54.94966,-33.95766 -63.59345,-33.95766 -22.84423,0 -32.72286,9.87856 -32.72286,30.25318 z m 43.21889,137.06545 18.52234,10.49603 0,20.99203 -12.34824,-9.26121 z m 24.6965,34.57511 0,-20.37459 18.52234,9.26115 0,20.99201 z m 21.6094,-80.26358 12.34825,9.26117 15.43529,-9.26117 15.43529,9.26117 12.34826,-9.26117 -27.78355,-49.39296 z m 3.08707,91.37698 0,-21.60943 21.6094,0 0,21.60943 -21.6094,0 z m 27.78354,0 0,-21.60943 21.60942,0 0,21.60943 -21.60942,0 z m 17.90496,-179.04948 c 0,33.34025 38.89694,50.01037 73.47204,50.01037 14.81785,0 22.84422,-19.13978 22.84422,-53.71485 0,-20.37462 -9.87859,-30.25318 -32.72285,-30.25318 -8.64376,0 -63.59341,14.81789 -63.59341,33.95766 z m 9.87855,177.81465 0,-20.99201 18.52237,-9.26115 0,20.37459 z m 24.69651,-12.96562 0,-20.99203 18.52235,-10.49603 -6.17409,22.22685 z m 11.11342,14.81788 17.28754,-12.96567 8.64378,-30.87059 c 32.72281,18.52235 68.5327,27.16613 95.08145,27.16613 12.34823,0 23.46164,10.49599 23.46164,25.93128 -53.09743,11.73084 -35.80992,54.94968 -59.88899,54.94968 -28.40094,0 -24.69646,-40.13176 -84.58542,-64.21083 z m 66.06308,-87.05512 49.39297,-67.91532 c 24.07906,-11.73082 32.10543,-22.84424 38.89696,-61.12379 22.22683,0 40.74917,9.87859 40.74917,20.992 0,21.60942 -13.58305,16.05271 -13.58305,41.36663 0,21.6094 17.28754,16.05268 17.28754,45.07106 -61.74121,0 -77.1765,0 -132.74359,21.60942 z"
       inkscape:connector-curvature="0"
       id="path4" />
    <g
       id="g3513"
       inkscape:label="Calque 1"
       transform="matrix(0.39549915,0,0,0.44654489,-501.19227,18.950913)">
      <g
         id="g3515">
        <g
           id="g3517"
           transform="matrix(0.93252,0,0,0.93252,-81.093,374.66)">
          <g
             id="g3519"
             style="fill:#ff0000">
            <path
               id="path3521"
               d="M 128.57,378.08 C 117.06,508.78 180.33,731.93 311.43,726.65 423.14,722.15 508.87,508.3 442.86,418.08 359.43,304.06 275.57,239.18 277.14,153.79 278.15,99.379 221.1,219.56 234.29,272.36 307.95,567.42 131.85,340.88 128.57,378.08 Z"
               sodipodi:nodetypes="ssssss"
               style="fill:#ff0000"
               inkscape:connector-curvature="0" />
            <path
               id="path3523"
               sodipodi:nodetypes="ssssss"
               style="fill:#ff0000"
               inkscape:connector-curvature="0"
               d="M 120,309.51 C 15.63,487.35 180.33,731.93 311.43,726.65 423.14,722.15 508.87,508.3 442.86,418.08 359.43,304.06 172.71,300.61 174.29,215.22 c 1.0053,-54.412 -42.081,12.651 -30,65.714 66.52,292.2 -5.39,-3.63 -24.29,28.58 z" />
          </g>
          <g
             id="g3525"
             style="fill:#ff0000"
             transform="matrix(-1,0,0,1,602.87,-24.286)">
            <path
               id="path3527"
               sodipodi:nodetypes="ssssss"
               style="fill:#ff0000"
               inkscape:connector-curvature="0"
               d="M 128.57,378.08 C 117.06,508.78 180.33,731.93 311.43,726.65 423.14,722.15 508.87,508.3 442.86,418.08 359.43,304.06 275.57,239.18 277.14,153.79 278.15,99.379 221.1,219.56 234.29,272.36 307.95,567.42 131.85,340.88 128.57,378.08 Z" />
            <path
               id="path3529"
               d="M 120,309.51 C 15.63,487.35 180.33,731.93 311.43,726.65 423.14,722.15 508.87,508.3 442.86,418.08 359.43,304.06 172.71,300.61 174.29,215.22 c 1.0053,-54.412 -42.081,12.651 -30,65.714 66.52,292.2 -5.39,-3.63 -24.29,28.58 z"
               sodipodi:nodetypes="ssssss"
               style="fill:#ff0000"
               inkscape:connector-curvature="0" />
          </g>
        </g>
        <g
           id="g3531"
           style="fill:url(#linearGradient3559)"
           transform="matrix(0.93252,0,0,0.93252,-81.093,374.66)">
          <g
             id="g3533"
             style="fill:url(#linearGradient3551)">
            <path
               id="path3535"
               sodipodi:nodetypes="ssssss"
               style="fill:url(#linearGradient3547)"
               inkscape:connector-curvature="0"
               d="M 128.57,378.08 C 117.06,508.78 180.33,731.93 311.43,726.65 423.14,722.15 508.87,508.3 442.86,418.08 359.43,304.06 275.57,239.18 277.14,153.79 278.15,99.379 221.1,219.56 234.29,272.36 307.95,567.42 131.85,340.88 128.57,378.08 Z" />
            <path
               id="path3537"
               d="M 120,309.51 C 15.63,487.35 180.33,731.93 311.43,726.65 423.14,722.15 508.87,508.3 442.86,418.08 359.43,304.06 172.71,300.61 174.29,215.22 c 1.0053,-54.412 -42.081,12.651 -30,65.714 66.52,292.2 -5.39,-3.63 -24.29,28.58 z"
               sodipodi:nodetypes="ssssss"
               style="fill:url(#linearGradient3549)"
               inkscape:connector-curvature="0" />
          </g>
          <g
             id="g3539"
             style="fill:url(#linearGradient3557)"
             transform="matrix(-1,0,0,1,602.87,-24.286)">
            <path
               id="path3541"
               d="M 128.57,378.08 C 117.06,508.78 180.33,731.93 311.43,726.65 423.14,722.15 508.87,508.3 442.86,418.08 359.43,304.06 275.57,239.18 277.14,153.79 278.15,99.379 221.1,219.56 234.29,272.36 307.95,567.42 131.85,340.88 128.57,378.08 Z"
               sodipodi:nodetypes="ssssss"
               style="fill:url(#linearGradient3553)"
               inkscape:connector-curvature="0" />
            <path
               id="path3543"
               sodipodi:nodetypes="ssssss"
               style="fill:url(#linearGradient3555)"
               inkscape:connector-curvature="0"
               d="M 120,309.51 C 15.63,487.35 180.33,731.93 311.43,726.65 423.14,722.15 508.87,508.3 442.86,418.08 359.43,304.06 172.71,300.61 174.29,215.22 c 1.0053,-54.412 -42.081,12.651 -30,65.714 66.52,292.2 -5.39,-3.63 -24.29,28.58 z" />
          </g>
        </g>
      </g>
    </g>
    <path
       id="path3545"
       inkscape:connector-curvature="0"
       d="m -522.63006,448.03663 c 0,-10.93024 6.51164,-8.83721 6.51164,-16.97674 0,-9.53489 -5.11629,-7.44187 -5.11629,-15.5814 0,-4.18605 6.97674,-7.90698 15.34884,-7.90698 2.55814,14.41861 5.5814,18.60466 14.65115,23.02326 l 18.60465,25.58139 c -20.93023,-8.13953 -26.74418,-8.13953 -49.99999,-8.13953 z m 20.46511,44.41859 c 0,-5.81395 4.18604,-9.76743 8.83721,-9.76743 10,0 23.48837,-3.25582 35.81396,-10.23256 l 3.25581,11.62791 6.51164,4.88372 c -22.55814,9.06977 -21.1628,24.18604 -31.86047,24.18604 -9.06977,0 -2.55815,-16.27907 -22.55815,-20.69768 z m 16.74419,-65.34883 7.67442,-11.16278 -5.34885,-43.48838 c 0,-20.93022 34.88374,-40.69766 60.46514,-40.69766 25.5814,0 60.46511,19.76744 60.46511,40.69766 l -5.34884,43.48838 7.67442,11.16278 -20.23256,27.90698 -12.79069,2.32558 -1.86047,10 -17.44186,9.76745 -20.93023,0 -17.44186,-9.76745 -1.86047,-10 -12.7907,-2.32558 z m 18.60465,-7.20929 c 0,13.02325 3.02326,20.23255 8.60464,20.23255 13.02327,0 27.67444,-6.27906 27.67444,-18.8372 0,-7.2093 -20.69767,-12.7907 -23.9535,-12.7907 -8.60464,0 -12.32558,3.72092 -12.32558,11.39535 z m 16.27908,51.62789 6.97674,3.9535 0,7.90698 -4.65116,-3.48838 z m 9.30233,13.02327 0,-7.67442 6.97674,3.48836 0,7.90698 z m 8.13953,-30.23256 4.65117,3.48836 5.81395,-3.48836 5.81394,3.48836 4.65117,-3.48836 -10.46511,-18.60465 z m 1.1628,34.4186 0,-8.13954 8.13952,0 0,8.13954 -8.13952,0 z m 10.46511,0 0,-8.13954 8.13953,0 0,8.13954 -8.13953,0 z m 6.74419,-67.44185 c 0,12.55814 14.65115,18.8372 27.67442,18.8372 5.58138,0 8.60464,-7.2093 8.60464,-20.23255 0,-7.67443 -3.72093,-11.39535 -12.32558,-11.39535 -3.25582,0 -23.95348,5.5814 -23.95348,12.7907 z m 3.72091,66.97673 0,-7.90698 6.97675,-3.48836 0,7.67442 z m 9.30234,-4.88371 0,-7.90698 6.97674,-3.9535 -2.32557,8.3721 z m 4.18605,5.58139 6.51163,-4.88372 3.25581,-11.62791 c 12.32557,6.97674 25.81394,10.23256 35.81395,10.23256 4.65116,0 8.8372,3.95348 8.8372,9.76743 -19.99999,4.41861 -13.48837,20.69768 -22.55814,20.69768 -10.69767,0 -9.30232,-15.11627 -31.86045,-24.18604 z m 24.88371,-32.7907 18.60466,-25.58139 c 9.06976,-4.4186 12.09302,-8.60465 14.65116,-23.02326 8.37209,0 15.34882,3.72093 15.34882,7.90698 0,8.13953 -5.11627,6.04651 -5.11627,15.5814 0,8.13953 6.51163,6.0465 6.51163,16.97674 -23.25581,0 -29.06976,0 -50,8.13953 z" />
    <g
       transform="matrix(0.61620119,0,0,0.44626572,-462.56269,401.73535)"
       inkscape:label="Calque 1"
       id="g3561"
       inkscape:export-xdpi="90"
       inkscape:export-ydpi="90"
       style="stroke:none">
      <g
         id="g3563"
         style="stroke:none">
        <g
           transform="matrix(0.93252,0,0,0.93252,-81.093,374.66)"
           id="g3565"
           style="stroke:none">
          <g
             style="fill:#ff0000;stroke:none"
             id="g3567">
            <path
               inkscape:connector-curvature="0"
               style="fill:#ff0000;stroke:none"
               sodipodi:nodetypes="ssssss"
               d="M 128.57,378.08 C 117.06,508.78 180.33,731.93 311.43,726.65 423.14,722.15 508.87,508.3 442.86,418.08 359.43,304.06 275.57,239.18 277.14,153.79 278.15,99.379 221.1,219.56 234.29,272.36 307.95,567.42 131.85,340.88 128.57,378.08 Z"
               id="path3569" />
            <path
               d="M 120,309.51 C 15.63,487.35 180.33,731.93 311.43,726.65 423.14,722.15 508.87,508.3 442.86,418.08 359.43,304.06 172.71,300.61 174.29,215.22 c 1.0053,-54.412 -42.081,12.651 -30,65.714 66.52,292.2 -5.39,-3.63 -24.29,28.58 z"
               inkscape:connector-curvature="0"
               style="fill:#ff0000;stroke:none"
               sodipodi:nodetypes="ssssss"
               id="path3571" />
          </g>
          <g
             transform="matrix(-1,0,0,1,602.87,-24.286)"
             style="fill:#ff0000;stroke:none"
             id="g3573">
            <path
               d="M 128.57,378.08 C 117.06,508.78 180.33,731.93 311.43,726.65 423.14,722.15 508.87,508.3 442.86,418.08 359.43,304.06 275.57,239.18 277.14,153.79 278.15,99.379 221.1,219.56 234.29,272.36 307.95,567.42 131.85,340.88 128.57,378.08 Z"
               inkscape:connector-curvature="0"
               style="fill:#ff0000;stroke:none"
               sodipodi:nodetypes="ssssss"
               id="path3575" />
            <path
               inkscape:connector-curvature="0"
               style="fill:#ff0000;stroke:none"
               sodipodi:nodetypes="ssssss"
               d="M 120,309.51 C 15.63,487.35 180.33,731.93 311.43,726.65 423.14,722.15 508.87,508.3 442.86,418.08 359.43,304.06 172.71,300.61 174.29,215.22 c 1.0053,-54.412 -42.081,12.651 -30,65.714 66.52,292.2 -5.39,-3.63 -24.29,28.58 z"
               id="path3577" />
          </g>
        </g>
        <g
           transform="matrix(0.93252,0,0,0.93252,-81.093,374.66)"
           style="fill:url(#linearGradient3607);stroke:none"
           id="g3579">
          <g
             style="fill:url(#linearGradient3599);stroke:none"
             id="g3581">
            <path
               d="M 128.57,378.08 C 117.06,508.78 180.33,731.93 311.43,726.65 423.14,722.15 508.87,508.3 442.86,418.08 359.43,304.06 275.57,239.18 277.14,153.79 278.15,99.379 221.1,219.56 234.29,272.36 307.95,567.42 131.85,340.88 128.57,378.08 Z"
               inkscape:connector-curvature="0"
               style="fill:url(#linearGradient3595);stroke:none"
               sodipodi:nodetypes="ssssss"
               id="path3583" />
            <path
               inkscape:connector-curvature="0"
               style="fill:url(#linearGradient3597);stroke:none"
               sodipodi:nodetypes="ssssss"
               d="M 120,309.51 C 15.63,487.35 180.33,731.93 311.43,726.65 423.14,722.15 508.87,508.3 442.86,418.08 359.43,304.06 172.71,300.61 174.29,215.22 c 1.0053,-54.412 -42.081,12.651 -30,65.714 66.52,292.2 -5.39,-3.63 -24.29,28.58 z"
               id="path3585" />
          </g>
          <g
             transform="matrix(-1,0,0,1,602.87,-24.286)"
             style="fill:url(#linearGradient3605);stroke:none"
             id="g3587">
            <path
               inkscape:connector-curvature="0"
               style="fill:url(#linearGradient3601);stroke:none"
               sodipodi:nodetypes="ssssss"
               d="M 128.57,378.08 C 117.06,508.78 180.33,731.93 311.43,726.65 423.14,722.15 508.87,508.3 442.86,418.08 359.43,304.06 275.57,239.18 277.14,153.79 278.15,99.379 221.1,219.56 234.29,272.36 307.95,567.42 131.85,340.88 128.57,378.08 Z"
               id="path3589" />
            <path
               d="M 120,309.51 C 15.63,487.35 180.33,731.93 311.43,726.65 423.14,722.15 508.87,508.3 442.86,418.08 359.43,304.06 172.71,300.61 174.29,215.22 c 1.0053,-54.412 -42.081,12.651 -30,65.714 66.52,292.2 -5.39,-3.63 -24.29,28.58 z"
               inkscape:connector-curvature="0"
               style="fill:url(#linearGradient3603);stroke:none"
               sodipodi:nodetypes="ssssss"
               id="path3591" />
          </g>
        </g>
      </g>
    </g>
    <path
       d="m -422.93435,800.88306 c 0,-7.65741 5.33069,-6.19109 5.33069,-11.8934 0,-6.67986 -4.18841,-5.21357 -4.18841,-10.91586 0,-2.93262 5.71145,-5.53942 12.56518,-5.53942 2.0942,10.10125 4.56916,13.03388 11.99404,16.12943 l 15.23049,17.92157 c -17.13432,-5.70232 -21.89385,-5.70232 -40.93199,-5.70232 z m 16.75354,31.11833 c 0,-4.07306 3.42687,-6.84275 7.23451,-6.84275 8.1864,0 19.2285,-2.28096 29.31874,-7.16863 l 2.66533,8.14617 5.33068,3.42138 c -18.46699,6.35402 -17.32471,16.94403 -26.08225,16.94403 -7.42488,0 -2.09419,-11.40463 -18.46701,-14.5002 z m 13.70748,-45.78145 6.2826,-7.82031 -4.37879,-30.46665 c 0,-14.66309 28.55722,-28.5116 49.49917,-28.5116 20.94193,0 49.49912,13.84851 49.49912,28.5116 l -4.37875,30.46665 6.28258,7.82031 -16.56318,19.55083 -10.47096,1.62922 -1.52305,7.00571 -14.2786,6.8428 -17.13432,0 -14.27861,-6.8428 -1.52304,-7.00571 -10.471,-1.62922 z m 15.2305,-5.0506 c 0,9.12372 2.47498,14.17431 7.0441,14.17431 10.66137,0 22.65542,-4.39891 22.65542,-13.19678 0,-5.05062 -16.94395,-8.96078 -19.6093,-8.96078 -7.04411,0 -10.09022,2.60677 -10.09022,7.98325 z m 13.32671,36.16896 5.71143,2.76971 0,5.53941 -3.80761,-2.44386 z m 7.61525,9.12372 0,-5.37646 5.71145,2.44382 0,5.53941 z m 6.66336,-21.18002 3.80763,2.44383 4.75953,-2.44383 4.75954,2.44383 3.80762,-2.44383 -8.56716,-13.03389 z m 0.95189,24.11266 0,-5.70233 6.66335,0 0,5.70233 -6.66335,0 z m 8.56718,0 0,-5.70233 6.66333,0 0,5.70233 -6.66333,0 z m 5.52106,-47.24779 c 0,8.79787 11.99403,13.19678 22.65539,13.19678 4.56914,0 7.04408,-5.05059 7.04408,-14.17431 0,-5.37648 -3.0461,-7.98325 -10.09021,-7.98325 -2.66532,0 -19.60926,3.91016 -19.60926,8.96078 z m 3.04606,46.92192 0,-5.53941 5.71146,-2.44382 0,5.37646 z m 7.61529,-3.42137 0,-5.53941 5.71144,-2.76971 -1.90383,5.86526 z m 3.42687,3.91014 5.33067,-3.42138 2.66534,-8.14617 c 10.09021,4.88767 21.13231,7.16863 29.31873,7.16863 3.80761,0 7.2345,2.76969 7.2345,6.84275 -16.37283,3.09557 -11.04214,14.5002 -18.46702,14.5002 -8.75754,0 -7.61524,-10.59001 -26.08222,-16.94403 z m 20.37078,-22.97218 15.23052,-17.92157 c 7.42487,-3.09555 9.89983,-6.02818 11.99403,-16.12943 6.85374,0 12.56515,2.6068 12.56515,5.53942 0,5.70229 -4.18837,4.236 -4.18837,10.91586 0,5.70231 5.33066,4.23599 5.33066,11.8934 -19.03813,0 -23.79766,0 -40.93199,5.70232 z"
       inkscape:connector-curvature="0"
       id="path3593"
       inkscape:export-xdpi="90"
       inkscape:export-ydpi="90"
       style="stroke:none" />
    <rect
       style="fill:none;stroke:none;stroke-opacity:1"
       id="rect3609"
       width="256"
       height="256"
       x="-465.71432"
       y="618.07654"
       inkscape:export-xdpi="90"
       inkscape:export-ydpi="90" />
    <g
       style="stroke:none"
       inkscape:export-ydpi="90"
       inkscape:export-xdpi="90"
       id="g4411"
       inkscape:label="Calque 1"
       transform="matrix(1.2116102,0,0,0.87747325,-396.84803,845.09199)">
      <g
         style="stroke:none"
         id="g4413">
        <g
           style="stroke:none"
           id="g4415"
           transform="matrix(0.93252,0,0,0.93252,-81.093,374.66)">
          <g
             id="g4417"
             style="fill:#ff0000;stroke:none">
            <path
               id="path4419"
               d="M 128.57,378.08 C 117.06,508.78 180.33,731.93 311.43,726.65 423.14,722.15 508.87,508.3 442.86,418.08 359.43,304.06 275.57,239.18 277.14,153.79 278.15,99.379 221.1,219.56 234.29,272.36 307.95,567.42 131.85,340.88 128.57,378.08 Z"
               sodipodi:nodetypes="ssssss"
               style="fill:#ff0000;stroke:none"
               inkscape:connector-curvature="0" />
            <path
               id="path4421"
               sodipodi:nodetypes="ssssss"
               style="fill:#ff0000;stroke:none"
               inkscape:connector-curvature="0"
               d="M 120,309.51 C 15.63,487.35 180.33,731.93 311.43,726.65 423.14,722.15 508.87,508.3 442.86,418.08 359.43,304.06 172.71,300.61 174.29,215.22 c 1.0053,-54.412 -42.081,12.651 -30,65.714 66.52,292.2 -5.39,-3.63 -24.29,28.58 z" />
          </g>
          <g
             id="g4423"
             style="fill:#ff0000;stroke:none"
             transform="matrix(-1,0,0,1,602.87,-24.286)">
            <path
               id="path4425"
               sodipodi:nodetypes="ssssss"
               style="fill:#ff0000;stroke:none"
               inkscape:connector-curvature="0"
               d="M 128.57,378.08 C 117.06,508.78 180.33,731.93 311.43,726.65 423.14,722.15 508.87,508.3 442.86,418.08 359.43,304.06 275.57,239.18 277.14,153.79 278.15,99.379 221.1,219.56 234.29,272.36 307.95,567.42 131.85,340.88 128.57,378.08 Z" />
            <path
               id="path4427"
               d="M 120,309.51 C 15.63,487.35 180.33,731.93 311.43,726.65 423.14,722.15 508.87,508.3 442.86,418.08 359.43,304.06 172.71,300.61 174.29,215.22 c 1.0053,-54.412 -42.081,12.651 -30,65.714 66.52,292.2 -5.39,-3.63 -24.29,28.58 z"
               sodipodi:nodetypes="ssssss"
               style="fill:#ff0000;stroke:none"
               inkscape:connector-curvature="0" />
          </g>
        </g>
        <g
           id="g4429"
           style="fill:url(#linearGradient4457);stroke:none"
           transform="matrix(0.93252,0,0,0.93252,-81.093,374.66)">
          <g
             id="g4431"
             style="fill:url(#linearGradient4449);stroke:none">
            <path
               id="path4433"
               sodipodi:nodetypes="ssssss"
               style="fill:url(#linearGradient4445);stroke:none"
               inkscape:connector-curvature="0"
               d="M 128.57,378.08 C 117.06,508.78 180.33,731.93 311.43,726.65 423.14,722.15 508.87,508.3 442.86,418.08 359.43,304.06 275.57,239.18 277.14,153.79 278.15,99.379 221.1,219.56 234.29,272.36 307.95,567.42 131.85,340.88 128.57,378.08 Z" />
            <path
               id="path4435"
               d="M 120,309.51 C 15.63,487.35 180.33,731.93 311.43,726.65 423.14,722.15 508.87,508.3 442.86,418.08 359.43,304.06 172.71,300.61 174.29,215.22 c 1.0053,-54.412 -42.081,12.651 -30,65.714 66.52,292.2 -5.39,-3.63 -24.29,28.58 z"
               sodipodi:nodetypes="ssssss"
               style="fill:url(#linearGradient4447);stroke:none"
               inkscape:connector-curvature="0" />
          </g>
          <g
             id="g4437"
             style="fill:url(#linearGradient4455);stroke:none"
             transform="matrix(-1,0,0,1,602.87,-24.286)">
            <path
               id="path4439"
               d="M 128.57,378.08 C 117.06,508.78 180.33,731.93 311.43,726.65 423.14,722.15 508.87,508.3 442.86,418.08 359.43,304.06 275.57,239.18 277.14,153.79 278.15,99.379 221.1,219.56 234.29,272.36 307.95,567.42 131.85,340.88 128.57,378.08 Z"
               sodipodi:nodetypes="ssssss"
               style="fill:url(#linearGradient4451);stroke:none"
               inkscape:connector-curvature="0" />
            <path
               id="path4441"
               sodipodi:nodetypes="ssssss"
               style="fill:url(#linearGradient4453);stroke:none"
               inkscape:connector-curvature="0"
               d="M 120,309.51 C 15.63,487.35 180.33,731.93 311.43,726.65 423.14,722.15 508.87,508.3 442.86,418.08 359.43,304.06 172.71,300.61 174.29,215.22 c 1.0053,-54.412 -42.081,12.651 -30,65.714 66.52,292.2 -5.39,-3.63 -24.29,28.58 z" />
          </g>
        </g>
      </g>
    </g>
    <path
       style="stroke:none"
       inkscape:export-ydpi="90"
       inkscape:export-xdpi="90"
       id="path4443"
       inkscape:connector-curvature="0"
       d="m -318.92851,1629.9191 c 0,-15.0564 10.4815,-12.1734 10.4815,-23.3855 0,-13.1342 -8.23549,-10.2511 -8.23549,-21.4633 0,-5.7662 11.23019,-10.8918 24.70638,-10.8918 4.11774,19.8615 8.98415,25.6277 23.58337,31.7145 l 29.94706,35.2385 c -33.69048,-11.2124 -43.04895,-11.2124 -80.48282,-11.2124 z m 32.94177,61.1867 c 0,-8.0087 6.73811,-13.4546 14.22491,-13.4546 16.09657,0 37.80817,-4.4849 57.64818,-14.0954 l 5.24073,16.0175 10.48149,6.7273 c -36.31086,12.4938 -34.06484,33.3164 -51.28442,33.3164 -14.59922,0 -4.11772,-22.4246 -36.31089,-28.5112 z m 26.95243,-90.0181 12.35321,-15.3768 -8.60983,-59.9051 c 0,-28.8315 56.15084,-56.0612 97.32811,-56.0612 41.17722,0 97.328007,27.2297 97.328007,56.0612 l -8.609749,59.9051 12.353169,15.3768 -32.567474,38.4418 -20.588603,3.2037 -2.99471,13.775 -28.0754,13.4547 -33.69048,0 -28.07543,-13.4547 -2.99468,-13.775 -20.58869,-3.2037 z m 29.94708,-9.9308 c 0,17.9395 4.86645,27.8703 13.85051,27.8703 20.963,0 44.54639,-8.6494 44.54639,-25.9483 0,-9.9308 -33.31616,-17.6191 -38.55693,-17.6191 -13.85054,0 -19.83997,5.1255 -19.83997,15.6971 z m 26.20374,71.1176 11.23014,5.4459 0,10.8918 -7.48674,-4.8053 z m 14.97354,17.9395 0,-10.5716 11.23019,4.8053 0,10.8919 z m 13.10189,-41.6454 7.48678,4.8052 9.35846,-4.8052 9.35847,4.8052 7.48677,-4.8052 -16.84524,-25.6279 z m 1.87166,47.4116 0,-11.2121 13.10186,0 0,11.2121 -13.10186,0 z m 16.84528,0 0,-11.2121 13.10182,0 0,11.2121 -13.10182,0 z m 10.85583,-92.9013 c 0,17.2989 23.58334,25.9483 44.54632,25.9483 8.984106,0 13.850474,-9.9308 13.850474,-27.8703 0,-10.5716 -5.989416,-15.6971 -19.839944,-15.6971 -5.24071,0 -38.55685,7.6883 -38.55685,17.6191 z m 5.98933,92.2607 0,-10.8919 11.2302,-4.8053 0,10.5716 z m 14.97362,-6.7274 0,-10.8918 11.23016,-5.4459 -3.74342,11.5324 z m 6.73811,7.6884 10.48147,-6.7273 5.24074,-16.0175 c 19.839953,9.6105 41.551563,14.0954 57.648172,14.0954 7.48674,0 14.224888,5.4459 14.224888,13.4546 -32.193198,6.0866 -21.711689,28.5112 -36.310914,28.5112 -17.219578,0 -14.973521,-20.8226 -51.284356,-33.3164 z m 40.054195,-45.1691 29.947122,-35.2385 c 14.599206,-6.0868 19.465614,-11.853 23.58335,-31.7145 13.476216,0 24.70631866,5.1256 24.70631866,10.8918 0,11.2122 -8.23541336,8.3291 -8.23541336,21.4633 0,11.2121 10.4814495,8.3291 10.4814495,23.3855 -37.4338638,0 -46.7923248,0 -80.4828268,11.2124 z" />
  </g>
</svg>
